<svg xmlns="http://www.w3.org/2000/svg" fill="none" viewBox="0 0 51 50" height="50" width="51">
<path stroke-linejoin="round" stroke-linecap="round" stroke="#0F0D1A" d="M6.5 25C6.5 14.5066 15.0066 6 25.5 6C35.9934 6 44.5 14.5066 44.5 25C44.5 35.4934 35.9934 44 25.5 44C21.4632 44 17.7204 42.7411 14.6429 40.5944"></path>
<path stroke="black" d="M3.5 22L6.26923 25L9.5 22.5"></path>
<path stroke="#0F0D1A" d="M25.6765 34L17.2795 29.2084C16.7975 28.9334 16.5 28.4211 16.5 27.8662V21.2364M25.6765 34L33.7433 29.2127C34.2124 28.9343 34.5 28.4292 34.5 27.8837V20.9091M25.6765 34V26.1455M16.5 21.2364L25.6765 26.1455M16.5 21.2364L21.6618 18.2909M34.5 20.9091L26.4374 16.4234C25.965 16.1606 25.3897 16.1637 24.9201 16.4316L21.6618 18.2909M34.5 20.9091L30.0882 23.5273M25.6765 26.1455L30.0882 23.5273M21.6618 18.2909L30.0882 23.5273"></path>
</svg>
